<svg xmlns="http://www.w3.org/2000/svg"
    xmlns:xlink="http://www.w3.org/1999/xlink" width="0" height="0" class="hidden" version="1.1"
    style="&#10;    background: black;&#10;">
    <symbol viewBox="0 0 256 256" id="plus">
        <path
            d="M124.1,10.8c-1,0.6-2.6,1.9-3.4,3l-1.5,2L119,67.4l-0.1,51.6H68c-56.6,0-53.2-0.2-56.4,3.9c-2.2,2.9-2.2,7.6,0,10.5c3.1,4.1-0.3,3.9,56.4,3.9h50.9V188c0,56.6-0.2,53.2,3.9,56.4c2.9,2.2,7.6,2.2,10.5,0c4.1-3.1,3.9,0.3,3.9-56.4v-50.9H188c56.6,0,53.2,0.2,56.4-3.9c2.2-2.9,2.2-7.6,0-10.5c-3.1-4.1,0.3-3.9-56.4-3.9h-50.9V68c0-56.5,0.2-53.2-3.8-56.3C130.8,9.9,126.8,9.4,124.1,10.8z" />
    </symbol>

    <symbol viewBox="0 0 256 256" id="user">
        <path
            d="M122,10.9c-0.4,0.1-2.3,0.4-4.1,0.7c-12,1.9-24.3,8.6-33.3,18C76,38.5,70.7,48.6,68,61c-1.2,5.7-1.4,17.9-0.5,24.5C72,115,84.5,138,102.1,149.2c1.8,1.2,3.3,2.2,3.2,2.3c0,0-2.4,0.6-5.2,1.3c-28.6,6.4-58,22.7-74.4,41c-7,7.9-12,16.6-14.3,24.9c-0.8,3.1-1,5.3-1.2,15.1L10,245.3l69.9-0.3c38.4-0.2,91.5-0.3,118-0.3H246l-0.2-11.4c-0.2-10.8-0.3-11.7-1.5-15.5c-6.1-20-25.3-38.8-53.9-52.8c-12.1-5.8-22.8-9.6-37.7-13.1c-1.3-0.3-1.3-0.3,1.4-2c13.6-8.1,24.5-24.3,30.4-45c9.2-32.2,5-57.1-12.9-75.7c-11.7-12.1-26.8-18.6-43.2-18.4C125.2,10.8,122.4,10.9,122,10.9z" />
    </symbol>

    <symbol viewBox="0 0 256 256" id="setting">
        <path
            d="M110,25.4v15.4l-4,1c-7.6,1.9-20,7.3-25,10.8l-1.6,1.2l-11-10.9L57.5,31.9L44.7,44.7L31.9,57.5l11,11l11,11l-1.8,2.7c-3.9,6.1-8.8,18.2-10.3,25.2l-0.5,2.6H25.6H10v18v18h15.7h15.7l0.3,1.2c1.9,8.7,5.6,17.8,10.5,26.1l1.8,3.2l-11,11l-11,11l12.8,12.8l12.8,12.8l11-11l11-11l4.3,2.5c7.5,4.3,16,7.7,23.8,9.6l2.4,0.6v15.6V246h18h18l0.1-15.5l0.1-15.5l2.3-0.6c9.3-2.4,19.5-6.6,25.8-10.6l2.3-1.4l11,10.9l10.9,10.9l12.8-12.8l12.8-12.8l-10.9-10.9l-10.9-11l2.4-4.1c4-6.6,7.7-15.9,9.9-24.7l0.5-1.9h15.4H246v-18v-18h-15.4h-15.4l-0.8-3.4c-1.9-7.7-5.9-17.6-9.8-24c-1.1-1.7-1.9-3.3-1.9-3.4c0-0.2,4.8-5.2,10.7-11l10.7-10.7l-12.8-12.8l-12.8-12.8l-10.8,10.8L177,53.5l-3.6-2.1c-7.5-4.4-16.4-8.1-23.7-9.8l-3.6-0.8V25.3V10h-18h-18V25.4z M136.8,78.9c19,3.3,34.4,17.5,39.5,36.6c1.1,4,1.2,5.3,1.2,12.3c0,7.1-0.1,8.3-1.2,12.4c-4.9,18.3-19.7,32.4-38.1,36.2c-6.3,1.3-16.2,1.2-22-0.4c-14.1-3.7-25.8-13-32.1-25.8c-4.1-8.2-5.6-15.5-5.2-24.9c0.4-8.1,1.8-13.4,5.6-20.7c6.8-13.2,20.2-23,35-25.7C123.9,78.1,132.1,78.1,136.8,78.9z" />
    </symbol>

    <symbol viewBox="0 0 256 256" id="bell">
        <path
            d="M223.9,187.6c-0.2-0.2-21.3-23-21.5-78.5c-0.1-32.4-21-59.9-49.9-70.1c0.2-1.4,0.4-2.8,0.4-4.2c0-13.7-11.1-24.8-24.9-24.8c-13.7,0-24.9,11.1-24.9,24.9c0,1.4,0.2,2.8,0.4,4.2c-29,10.1-49.9,37.7-49.9,70.1c0,55.4-21.3,78.2-21.4,78.3c-3.6,3.6-4.6,8.9-2.7,13.6c1.9,4.6,6.5,7.7,11.5,7.7h39c5.5,21.4,24.8,37.3,47.9,37.3c23.1,0,42.4-15.9,47.9-37.3h39c5,0,9.4-3,11.4-7.6C228.3,196.6,227.3,191.2,223.9,187.6L223.9,187.6z M128.1,221.1c-9.2,0-17.1-5-21.4-12.4h42.8C145.1,216.1,137.2,221.1,128.1,221.1z" />
    </symbol>

    <symbol viewBox="0 0 256 256" id="change-password">
        <g>
            <path
                d="M116.8,25.8c-39.6,5.1-73.7,33.4-86.2,71.7l-2.3,7.1l-1.1-1.8c-0.6-1-3.1-5.5-5.5-9.9c-5.4-10.1-7-11.3-10.4-8.7c-2.5,2-2.1,3.3,7,20c4.6,8.6,8.8,16,9.2,16.4c0.8,1,3,1.2,4.6,0.6c0.4-0.2,6.4-6,13.2-13.1C57,96,57.6,95.2,57.6,93.3c0-2.6-1.3-3.9-4-3.9c-2,0-2.5,0.4-9.2,7.3l-7.1,7.4l0.7-2.6c4.7-16,15.9-33.1,29-44.4c35-30,85.3-31.8,121.8-4.3c16.5,12.4,28.8,29.9,34.1,48.6c1.7,6.2,2.8,7.8,5.2,7.8c1.9,0,3.2-0.9,4.1-2.6c0.7-1.3,0.6-1.9-0.5-6c-11.3-39.3-45.4-68.8-86.4-74.6C139.2,25.1,122.9,25,116.8,25.8z" />
            <path
                d="M121.2,67.3c-13.1,3.2-20.9,13.8-21.7,29.9l-0.4,6.4l-5.2,0.3c-4.7,0.3-5.4,0.4-7.4,1.9c-2.7,1.9-4.5,4.4-5.3,7.3c-0.4,1.3-0.5,12.2-0.4,30.6c0.2,28.3,0.2,28.5,1.3,30.7c0.6,1.2,1.9,2.8,2.9,3.6c3.9,3.3,1.3,3.1,44,3.1c28.4,0,39.6-0.2,40.8-0.6c2.6-1,5-3.1,6.5-5.8l1.5-2.5l0.2-27.7c0.2-30.1,0.1-32-2.6-35.6c-2.6-3.5-4.9-4.6-10.7-4.9l-5.1-0.3l-0.3-5.6c-0.6-10.3-3.5-17.5-9.4-23.4c-3.6-3.6-9.1-6.6-14-7.6C132,66.2,124.9,66.3,121.2,67.3z M137.5,76.1c8,2.5,12.5,9.4,13.5,21.3c0.6,6.7,3,6-22,6h-21.6v-2.9c0-4.4,1-10.9,2.2-14.2c1.7-4.4,6.2-8.7,10.7-10.2C125,74.6,132.7,74.6,137.5,76.1z M168.8,113.3c0.5,0.7,0.7,6.6,0.7,29.2c0,27.6-0.1,28.3-1.1,29.3c-1.1,1.1-1.8,1.1-39,1.1c-33.4,0-38-0.1-39.1-0.9l-1.2-0.8v-28.9c0-27.6,0.1-28.9,1-29.5c0.8-0.5,8.6-0.7,39.4-0.6C166,112.3,168.1,112.3,168.8,113.3z" />
            <path
                d="M125.1,125.1c-2.5,1.3-4.8,4.1-5.5,6.7c-0.4,1.3-0.5,5.2-0.4,9.8c0.2,7.5,0.2,7.7,1.8,9.9c3.4,4.9,9.2,6,13.8,2.8c3.8-2.7,4.2-4,4.2-14.4c0-10.2-0.3-11.1-4-14C132.4,124.2,127.9,123.7,125.1,125.1z M130.8,140.1l0.2,7.7h-1.7h-1.6v-7.4c0-4.1,0.2-7.6,0.4-7.8c0.2-0.2,0.9-0.3,1.5-0.2C130.6,132.5,130.6,133,130.8,140.1z" />
            <path
                d="M226.7,132.2c-1.2,0.5-27.2,24.1-27.8,25.3c-1.4,2.7,0.5,5.9,3.6,5.9c1.9,0,2.2-0.2,12.2-9.2c3.8-3.5,7-6.2,7.1-6.1c0.4,0.3-3.1,11-4.9,15.3c-5.7,13.3-14.6,25.6-25.1,34.8c-26.4,23.2-62,30.4-95.2,19.3c-23.5-7.8-43.8-25.3-55-47.1c-3.6-7-4.8-10.1-6.6-16.6c-0.7-2.7-1.7-5-2.5-5.8c-2.3-2.3-6-1.1-6.9,2.3c-0.7,2.8,3.3,13.9,8.7,24.3c15.4,29.8,45,50.7,78.4,55.5c7.4,1,21.8,1,29.4-0.1c30.9-4.3,58.3-22.2,75-49c5.1-8.1,8.3-15.7,12.5-29.3c0.2-0.4,0.3-0.6,0.4-0.5c0.1,0.1,1.9,4.1,4,8.8c2.1,4.7,4.4,9.1,5,9.7c2.4,2.6,6.9,0.9,6.9-2.5c0-2-13.5-32-15.1-33.6C229.5,132.2,227.9,131.7,226.7,132.2z" />
        </g>
    </symbol>

    <symbol viewBox="0 0 256 256" id="logout">
        <g>
            <path
                d="M214.7,185.6c-4-3.1-9.8-2.4-13,1.6c-8.9,11.4-20.3,20.9-33.3,27.4c-13.5,6.8-28.1,10.2-43.3,10.2c-13.1,0-25.7-2.6-37.7-7.6c-11.5-4.9-21.9-11.8-30.8-20.8c-8.9-8.9-15.9-19.2-20.8-30.8c-5-11.9-7.6-24.6-7.6-37.6c0-13.1,2.6-25.7,7.6-37.7C41,78.8,48,68.5,56.9,59.6c8.9-8.9,19.2-15.9,30.8-20.8c11.9-5,24.6-7.6,37.7-7.6c15.2,0,29.8,3.4,43.3,10.2c12.9,6.5,24.4,15.9,33.3,27.4c3.1,4,8.9,4.8,13,1.6c4-3.1,4.8-8.9,1.6-13c-10.6-13.6-24.3-24.9-39.6-32.6c-16.1-8.1-33.4-12.2-51.6-12.2c-15.6,0-30.7,3.1-44.9,9.1c-13.7,5.8-26,14.1-36.6,24.7C33.2,57.1,24.9,69.4,19.1,83.1c-6,14.2-9.1,29.3-9.1,44.9c0,15.6,3.1,30.6,9.1,44.9c5.8,13.7,14.1,26,24.7,36.6c10.6,10.6,22.9,18.9,36.6,24.7c14.2,6,29.3,9.1,44.9,9.1c18.1,0,35.5-4.1,51.6-12.2c15.4-7.7,29-19,39.6-32.6C219.5,194.5,218.8,188.7,214.7,185.6z" />
            <path
                d="M244,126.4l-40.7-34.3c-2.6-2.2-4.7-1.3-4.7,2v27h-54c-5.1,0-9.2,4.1-9.2,9.2c0,5.1,4.1,9.2,9.2,9.2h54.1v27c0,3.3,2.1,4.3,4.7,2l40.7-34.4C246.7,132.2,246.7,128.6,244,126.4z" />
        </g>
    </symbol>

    <symbol viewBox="0 0 256 256" id="user-group">
        <g>
            <path
                d="M83.3,47.7c-7.8,1.7-14.2,5.1-20,10.6C52.7,68.5,48.2,81.1,49.5,97.2c1.2,13.8,5.3,26.3,12.3,37c4.7,7.1,5.9,10.3,5.9,15.1c0,2.1-0.3,3.2-1.2,4.8c-3.3,5.6-17.2,12.5-37.4,18.4c-4,1.2-8.3,2.7-9.5,3.3c-4.2,2.3-7.9,7.3-9.1,12.2c-0.2,1.1-0.5,6.3-0.5,11.5v9.6h81.2h81.1l-0.1-11c-0.1-10.7-0.1-11-1.4-13.6c-2.4-5-8-9.7-12.8-10.7c-0.9-0.2-5.1-1.5-9.5-2.9c-18-5.9-28.3-11.1-32.2-16.3c-1.4-1.9-1.5-2.2-1.4-5.9c0-4.9,0.9-7.3,5.1-13.6c8.9-13.6,13.7-30.5,13-46.1c-0.4-8.9-2.7-15.9-7.4-22.9c-7.9-11.8-19.6-18.6-33-19.1C88.5,46.9,86.3,47,83.3,47.7z" />
            <path
                d="M180.8,91.8c-10.9,2.4-20.4,11.7-23.3,23.1c-1.1,4.3-1.2,12.5-0.2,18.2c1.3,7.8,4.4,15.6,8.3,21.5c1.8,2.8,2.6,3.5,5.3,4.8c9,4.7,15.9,13.5,18.5,23.5c0.8,3.1,1,5.3,1.2,14.5c0.1,5.9,0.2,11,0.2,11.2c0,0.2,12.4,0.4,27.7,0.4H246V202c0-4.8-0.2-7.8-0.6-9.3c-1.5-4.8-4.9-7.9-10.6-9.5c-15.5-4.4-26.8-9.7-29.6-13.7c-2.2-3.3-1.2-8.6,2.9-14.6c4.2-6.3,7.4-14.7,8.6-22.9c1.5-9.9,0.7-16.2-2.8-23.5c-1.8-3.7-2.7-5-6.1-8.3c-3.2-3.2-4.7-4.3-7.9-5.9C193.5,91.2,187.5,90.4,180.8,91.8z" />
        </g>
    </symbol>

    <symbol viewBox="0 0 256 256" id="home">
        <path
            d="M124.9,10.6c-1.1,0.5-17.2,19.5-58,68.4c-44.9,53.8-56.5,68.1-56.8,69.4c-0.4,2.4,0.1,4.7,1.5,6.3c2.2,2.6,3.1,2.7,16,2.7h11.8v41.8c0,46.3-0.1,44,3,45.9c1.3,0.8,2.8,0.9,26.7,0.9h25.2l1.5-1.2c2.8-2.4,2.7-1.6,2.7-32.5c0-31.8,0-32,3.3-38.6c4.8-9.6,15.3-16.1,26.2-16.1c11,0,21.4,6.5,26.2,16.2c3.3,6.6,3.3,6.8,3.3,38.5c0,26.8,0,28.2,0.9,30.1c0.5,1.2,1.5,2.4,2.4,2.9c1.5,0.9,2.3,0.9,26.5,0.9h24.9l1.5-1.2c2.9-2.4,2.7-0.4,2.7-45.8v-41.5h11.8c13,0,13.9-0.1,16-2.7c1.5-1.8,2-4.2,1.4-6.5c-0.3-1.2-4.6-6.7-14.7-18.8l-14.3-17.1l-0.2-34.1c-0.2-33.5-0.2-34.1-1.2-35.4c-2.4-3.1-2.4-3.2-13.6-3.2s-11.2,0-13.6,3.2c-0.9,1.2-1,2-1.2,17.4l-0.2,16.1l-27.1-32.6C139,19,132.2,11.1,131,10.6C129,9.7,126.9,9.8,124.9,10.6z" />
    </symbol>

    <symbol viewBox="0 0 256 256" id="invitation">
        <g>
            <path
                d="M244.4,113.7l-14.4-13.8l-7.4-6.6c-2.1-1.9-5.3-1.7-7.2,0.4c-1.9,2.1-1.7,5.3,0.4,7.2l19.9,18.7v22L128,204.3L20.2,141.5v-22l15.2-14.3c2.1-1.9,2.2-5.2,0.2-7.2c-1.9-2.1-5.2-2.2-7.2-0.2l-16.8,15.8c-1,1-1.6,2.3-1.6,3.7v128.6c0,2.8,2.3,5.1,5.1,5.1h225.8c2.8,0,5.1-2.3,5.1-5.1V117.3C246,116,245.4,114.6,244.4,113.7z" />
            <path
                d="M117.5,26.1c1.3,0,2.5-0.5,3.5-1.4l8-7.6l7.9,7.5c2,2,5.3,1.9,7.2-0.2s1.9-5.3-0.2-7.2L132.6,6.4c-2-1.9-5.1-1.9-7.1,0l-11.6,10.9c-2.1,1.9-2.2,5.2-0.2,7.2C114.7,25.6,116.1,26.1,117.5,26.1z" />
            <path
                d="M219.3,15.9H36.7c-2.8,0-5.1,2.3-5.1,5.1v113c0,2.8,2.3,5.1,5.1,5.1h182.5c2.8,0,5.1-2.3,5.1-5.1V21C224.4,18.2,222.1,15.9,219.3,15.9z M95.6,63.2c-0.8,1.6-3.3,4.6-4.8,6.1c-3.1,3-9.3,8.3-11.9,10c-0.9,0.6-1.8,0.8-2.8,0.8c-1,0-2-0.3-2.9-0.9c-2.3-1.6-13.8-9.8-17-16.6c-1.8-3.1-4-11.4,2.5-18c0.4-0.4,4.1-4,9.3-4c2.2,0,5,0.6,7.9,3c3.5-2.8,9-4,14.3-1.3c0.7,0.3,6.2,3.4,7.1,9.9C97.7,55.3,97.8,58.9,95.6,63.2z M193.2,109.2H154c-2.8,0-5.1-2.3-5.1-5.1c0-2.8,2.3-5.1,5.1-5.1h39.2c2.8,0,5.1,2.3,5.1,5.1C198.4,106.9,196.1,109.2,193.2,109.2z M193.2,82.6h-82.1c-2.8,0-5.1-2.3-5.1-5.1c0-2.8,2.3-5.1,5.1-5.1h82.1c2.8,0,5.1,2.3,5.1,5.1C198.4,80.3,196.1,82.6,193.2,82.6z M193.2,56.3h-55.7c-2.8,0-5.1-2.3-5.1-5.1c0-2.8,2.3-5.1,5.1-5.1h55.7c2.8,0,5.1,2.3,5.1,5.1C198.4,54,196.1,56.3,193.2,56.3z" />
        </g>
    </symbol>

    <symbol viewBox="0 0 256 256" id="guestbook">
        <g>
            <path
                d="M10,39.5c0,50.5,0,163.9,0,175.8c0,15.8,14.4,30.4,29.5,30.7V10C24.1,10,10,21.8,10,39.5z" />
            <path d="M39.5,246c0,0,0.2,0,0.5,0C39.8,246,39.7,245.9,39.5,246L39.5,246z" />
            <path d="M231.2,69c-14.8,0-14.8,0-14.8,0v44.3H246V85.1C246,85.1,246,69,231.2,69z" />
            <path d="M216.5,231.3c0,0,0,0,14.8,0c14.8,0,14.8-14.3,14.8-14.3v-30h-29.5V231.3z" />
            <path d="M216.5,128H246v44.3h-29.5V128z" />
            <path
                d="M171.8,10c-15.2,0-117.5,0-117.5,0v236c0,0,102.6,0,118,0c15.4,0,29.5-11.8,29.5-29.5c0-50.5,0-163.9,0-175.8C201.7,24.8,187,10,171.8,10z M172.1,157.5h-44.2H83.8c0,0-0.7-9.1,1.7-12.9c2.6-4.1,11.6-6.9,20.4-10.5c8.8-3.7,10.9-5.1,10.9-5.1l0.1-8.5c0,0-3.3-2.6-4.3-10.5c-2.1,0.6-4.3-3.1-4.4-5.1c-0.1-1.9,0.3-7.1,2.8-6.5c-0.5-3.9-0.9-7.4-0.7-9.3c0.7-6.8,7.4-14,17.7-14s17,7.2,17.7,14c0.2,1.9-0.2,5.4-0.7,9.3c2.5-0.5,3,4.7,2.8,6.5c-0.1,1.9-2.3,5.7-4.4,5c-1,8-4.3,10.5-4.3,10.5l0.1,8.5c0,0,2.1,1.3,10.9,5c8.8,3.7,17.8,6.6,20.4,10.7C172.8,148.4,172.1,157.5,172.1,157.5z" />
        </g>
    </symbol>

    <symbol viewBox="0 0 256 256" id="bus">
        <g>
            <path
                d="M24.7,50.2c-3.7,1-6.8,2.9-9.3,5.6c-3,3.3-4.5,6.5-5.1,11c-0.3,2.4-0.5,22-0.4,58.4l0.1,54.7l1.4,2.2c1,1.7,2.1,2.6,3.9,3.6l2.4,1.3h10.8h10.8v-2c0-9.2,7.1-19.8,16.1-24.3c8.9-4.3,17.9-4.3,26.8,0c5.2,2.6,10.5,7.8,13,12.9c1.8,3.8,3.1,8.3,3.1,11.4v2H128h29.4l0.3-3.2c1-11.8,10.2-22.4,22.3-25.4c6.9-1.8,14.4-0.8,21.1,2.6c4.7,2.5,10.2,8,12.5,12.7c1.9,3.9,3.1,8.3,3.1,11.3v2h10.8h10.8l2.4-1.3c1.8-0.9,2.9-1.9,3.9-3.6l1.4-2.2l0.1-55.2c0.1-36.7,0-56.2-0.4-58.4c-0.9-6-5-11.9-10.1-14.5c-4.8-2.5,0.9-2.4-107.8-2.3C41.4,49.5,26.9,49.6,24.7,50.2z M79,93.6l0.1,14.8l-24.5,14.7c-13.5,8.1-24.7,14.8-24.9,14.9c-0.2,0.1-0.4-13-0.4-29.6V78.5l24.8,0.1l24.8,0.1L79,93.6z M128,93.5v15h-14.8H98.5v-15v-15h14.8H128V93.5z M177.3,93.5v15h-15h-15v-15v-15h15h15V93.5z M226.6,93.6l0.1,14.9h-15h-15v-15v-15l14.9,0.1l14.9,0.1L226.6,93.6z" />
            <path
                d="M63.9,168.3c-5.5,1.5-10.1,5.4-12.6,10.8c-2,4.1-2.3,9.6-0.8,14c4.2,12.6,19.5,17.4,30,9.5c5.4-4,8.1-9.9,7.7-16.8C87.6,173.6,75.8,165.1,63.9,168.3z" />
            <path
                d="M182,168.3c-5.5,1.5-10,5.4-12.6,10.8c-1.3,2.8-1.4,3.3-1.4,8.1s0.1,5.3,1.5,8.1c3.8,7.7,12.1,12.2,20.4,11c7.3-1,13.6-6.4,15.7-13.5C210,178.2,196.7,164.3,182,168.3z" />
        </g>
    </symbol>

    <symbol viewBox="0 0 256 256" id="close">
        <path
            d="M154.3,128l86.2-86.2c7.3-7.3,7.3-19.1,0-26.3c-7.3-7.3-19.1-7.3-26.3,0L128,101.6L41.8,15.4c-7.3-7.3-19.1-7.3-26.3,0c-7.3,7.3-7.3,19.1,0,26.3l86.2,86.2l-86.2,86.2c-7.3,7.3-7.3,19.1,0,26.3c3.6,3.6,8.4,5.5,13.2,5.5c4.8,0,9.5-1.8,13.2-5.5l86.2-86.2l86.2,86.2c3.6,3.6,8.4,5.5,13.2,5.5c4.8,0,9.5-1.8,13.2-5.5c7.3-7.3,7.3-19.1,0-26.3L154.3,128z" />
    </symbol>

    <symbol viewBox="0 0 256 256" id="check">
        <path
            d="M217.5,42.2c-0.9,0.2-2.4,0.7-3.2,1.1c-0.9,0.5-24.2,23.4-56,55.2l-54.4,54.4l-28.4-28.3C55.7,104.9,46.4,96,45,95.2c-1.6-0.8-2.9-1.1-5.3-1.1c-5,0-6.4,1-18.1,12.8c-9.7,9.8-10.2,10.3-10.9,12.9c-1,3.3-0.7,6.7,0.6,9.3c0.6,1.1,17.5,18.3,41.9,42.7C97.6,216.3,95,214,100.3,214s1.4,3.7,75.9-70.8c62.9-63,68.4-68.6,69.1-70.7c0.9-2.9,0.9-5.5,0-8.4c-0.6-1.9-2-3.6-9.5-11.1c-5.6-5.7-9.5-9.2-10.7-9.7C222.9,42.2,219.7,41.7,217.5,42.2z" />
    </symbol>

    <symbol viewBox="0 0 256 256" id="view">
        <g>
            <path
                d="M117.1,43.5C99.4,45.2,82.4,51.8,68,62.7C54.6,72.8,45.2,83,22.7,111.8c-5.4,6.9-10.5,13.4-11.3,14.3L10,128l1.4,1.8c0.8,1,6.3,8,12.2,15.6c21.9,28,31.1,38,44.2,47.8c15,11.3,31.6,17.7,50.2,19.4c23.7,2.2,45.8-3.2,64.7-15.7c14.8-9.8,25.7-21.1,49.5-51.5c5.9-7.6,11.4-14.6,12.2-15.6l1.5-1.8l-1.5-1.8c-0.8-1-6.3-8-12.2-15.6c-21.9-28-31.1-37.9-44.2-47.8C167.9,47.6,143.7,41,117.1,43.5z M143.2,59.6c23.3,4.2,40.7,16,63.1,43c5.5,6.6,19.7,24.9,19.7,25.4c0,0.4-13.9,18.3-19.7,25.4c-22,26.7-39.7,38.8-63.1,43c-6.9,1.3-23.6,1.3-30.4,0c-23.5-4.3-40.7-16-63.1-43c-5.5-6.5-19.7-24.9-19.7-25.4c0-0.6,15-19.8,21.7-27.8C73.8,73.9,92.6,62,117.4,59C122.6,58.3,138,58.7,143.2,59.6z" />
            <path
                d="M121,90.1c-19.9,3.7-33.8,22.6-31.3,42.5c2.2,17.7,16,31.5,33.7,33.7c20.8,2.7,40.1-12.6,42.8-33.7C169.5,107.1,146.3,85.4,121,90.1z M133.6,105.5c8.3,2.2,14.7,8.6,16.9,17c3.1,12-4.5,24.7-16.9,27.9c-12.1,3.1-24.8-4.5-28-16.9C101.2,117,117,101.2,133.6,105.5z" />
        </g>
    </symbol>
    <symbol viewBox="0 0 256 256" id="delete">
        <g>
            <path
                d="M97.3,11.2c-4.3,1.5-9.4,5-11.7,8c-1.2,1.6-3.8,7-7.5,16l-5.7,13.6L47.6,49l-24.9,0.2l-1.4,1.6C20,52.3,20,52.3,20,58.8C20,68.9,20.1,69,31.7,69h7.9v74.3c0,80.3,0,77.9,2.6,84.8c2.5,6.7,8.1,13.2,13.3,15.7c1.3,0.7,3.8,1.4,5.3,1.7c3.8,0.7,131.3,0.7,135,0c9.6-1.8,17.9-11.8,20.2-24.3c0.5-2.9,0.6-17.4,0.7-77.9V69h8.4h8.4l1.4-1.4l1.4-1.4v-7c0-3.9-0.2-7.4-0.5-7.8c-1.1-2.1-1.5-2.1-27.3-2.4l-24.7-0.2l-5.7-13.6c-6.4-15.3-7.6-17.3-12.8-20.9c-6.2-4.4-5.4-4.3-37-4.3h-27.4L97.3,11.2z M153.6,30.2c1.1,0.6,2,2.2,5,9.6c2,4.9,3.6,9,3.5,9.1c-0.1,0.1-15.5,0.1-34.2,0l-34-0.1l3.4-8.3c3.9-9.5,4.1-9.9,5.6-10.5c0.6-0.2,11.9-0.4,25.2-0.4C148.1,29.5,152.5,29.6,153.6,30.2z M196.9,143.8l-0.1,74.8l-1.1,2.3c-0.6,1.2-1.5,2.9-2,3.7l-1,1.4h-64.4H63.9l-1.2-1.4c-0.7-0.8-1.7-2.6-2.2-4c-1-2.7-1-2.9-1-77.1V69h68.7H197L196.9,143.8z" />
            <path
                d="M80.4,99.9l-1.4,1.4v46.2v46.2l1.4,1.4l1.4,1.4h7h7l1.4-1.4l1.4-1.4v-46.2v-46.2l-1.4-1.4l-1.4-1.4h-7h-7L80.4,99.9z" />
            <path
                d="M119.8,99.9l-1.6,1.4v45.9c0,49.4-0.1,47.7,2.5,48.8c0.7,0.3,3.9,0.5,7.8,0.5h6.7l1.4-1.4l1.4-1.4l-0.1-46.4l-0.1-46.5l-1.3-1.1c-1.3-1.1-1.6-1.1-8.2-1.1h-6.9L119.8,99.9z" />
            <path
                d="M159.9,99.2c-2.5,1.4-2.4-0.4-2.4,48.2c0,48.7,0,47.3,2.3,48.6c0.5,0.2,4,0.5,7.7,0.5h6.8l1.4-1.4l1.4-1.4v-46.2v-46.2l-1.4-1.4l-1.4-1.4h-6.6C163.1,98.5,160.7,98.7,159.9,99.2z" />
        </g>
    </symbol>

    <symbol viewBox="0 0 256 256" id="reload">
        <path
            d="M119,10.2C69,14.1,26.3,49.6,13.7,98C11,108.3,10,116.3,10,128c-0.1,32.8,12.3,61.9,35.9,84.8c10,9.6,18.8,15.8,31,21.7c39.7,19.2,86.9,14.3,122.6-12.6c6.3-4.7,17.6-16.1,22.3-22.3c14.1-18.7,22.3-40.7,23.9-63.7c0.7-10.6,0.2-13-3.3-16.4c-5.1-4.9-12.8-4.4-17.3,1.1c-2.2,2.7-2.3,3-3.1,13.6c-0.4,4.5-1.1,10.6-1.8,13.4c-10.1,46.2-52.8,78.1-99.7,74.3c-22.9-1.9-43-11.2-59.2-27.4c-19.6-19.6-29.5-46.1-27.4-73.5c3.6-47,40.2-83.6,87.2-87.2c25.2-1.9,50.3,6.5,69.7,23.6l3.5,3l-8.7,8.9c-7.3,7.4-8.8,9.3-8.8,10.7c0,3.2,0.5,3.2,30.8,2.7l27.6-0.4l0.2-22.4c0.2-35.5,0.2-33.8-0.9-34.9c-1.8-1.8-3.9-0.5-13.8,9.3l-9.6,9.5l-2.1-2.1c-8.5-8.9-25.5-19.5-39.8-24.8C154,11.6,135.3,8.9,119,10.2z" />
    </symbol>

    <symbol viewBox="0 0 256 256" id="edit">
        <path
            d="M174,10.8c-4,1-8.7,3.3-12.4,6c-1.6,1.3-30,29.3-63,62.4l-60,60.1l-2.3,4.8c-2.7,5.7-3,6.6-11.5,37.9c-3.6,13.4-8.1,29.5-10,35.8c-4.6,15.6-4.8,16.1-4.8,19.1c0.1,6.2,3.4,9.1,10.4,9.1c3.4,0,5.2-0.4,10.7-2.1c12.5-4,54-15.7,71.6-20.1c4.5-1.2,8.5-2.5,11.2-3.9c4.1-2.1,5.1-3,63.8-61.7c32.8-32.7,60.7-60.9,61.9-62.7c4.6-6.3,6.6-12.4,6.5-20c-0.1-6.4-1.5-11.5-5-18.6c-3.9-7.9-9.7-15.5-18.8-24.4c-13-12.9-23.4-19.7-33.8-21.9C184.2,9.8,177.9,9.8,174,10.8z M174.9,39.2c7.5,1.9,16.3,7.7,25.4,16.8c14.8,14.8,20.5,28,16.6,38.6c-1.1,2.9-2.8,4.7-46.2,48.1c-24.8,24.9-45.2,45.1-45.4,45.1c-0.2,0-0.5-1.3-0.6-3c-1.1-10.3-11.1-25.1-26-38.3c-10.6-9.4-21.3-15.1-28.3-15.1c-1.6,0,0.8-2.5,42.7-44.5c24.4-24.4,45.4-45.1,46.7-45.8C164.4,38.4,169.3,37.7,174.9,39.2z M67.7,146.4c7.5,1.9,14.6,6.6,23.7,15.5c15.2,14.7,21.4,27.8,18,38c-1.7,5.2,0,4.4-31.3,13.2c-15.5,4.3-28.3,7.7-28.4,7.4c-1-2.9-8.6-10.9-12.3-12.8c-1.1-0.6-2-1.1-2-1.2c0-0.1,3.4-12.9,7.6-28.5c8.4-31.4,7.6-29.3,12.5-31.3C58.6,145.4,63.6,145.3,67.7,146.4z" />
    </symbol>

    <symbol viewBox="0 0 256 256" id="warning">
        <path
            d="M106.8,11.4c-22.4,4.1-46.2,16.5-62.5,32.8c-16.6,16.6-28.9,40.2-32.9,63.2c-1.8,10.8-1.8,29.8,0.1,40.7c6.2,36.1,29.6,67.9,62.4,84.8c39.6,20.5,88.4,16.6,124.1-9.9c52.6-39,63.7-113,24.9-165.4c-17.9-24.4-45.1-41.2-74.7-46.3C137.6,9.5,117,9.6,106.8,11.4z M139.2,105.1v45.1l-11.3,0.2l-11.3,0.1v-45.3V59.9h11.3h11.3V105.1z M139.2,185v10.9h-11.3h-11.3V185v-10.9h11.3h11.3V185z" />
    </symbol>

    <symbol viewBox="0 0 256 256" id="question">
        <g>
            <path
                d="M116.7,10.3C88.9,13.2,64,24.9,44.4,44.5c-18.8,18.8-29.9,41.6-33.9,69c-0.8,5.4-0.8,23.6,0,29.1c3.9,27.4,15.2,50.3,33.9,69c18.7,18.7,41.7,30,69,33.9c5.5,0.8,23.6,0.8,29.1,0c22.5-3.2,42.9-11.9,59.6-25.4c5.6-4.6,13.9-12.8,18.3-18.4c10.9-13.7,19.9-32.6,23.2-49.3c2-9.8,2.4-13.6,2.4-24.4c0-14.3-1.6-24.2-5.7-36.9c-5.9-17.9-15-32.7-28.4-46.2c-18.4-18.6-40.7-29.9-67.3-34C138.8,10.1,122.6,9.6,116.7,10.3z M138.5,31.5c6.9,0.7,13.1,2.1,20,4.4c16.9,5.6,31.3,15.2,42.8,28.5c25.7,29.7,31,71.2,13.8,106.3c-9.6,19.4-24.8,34.7-44.3,44.3c-26.8,13.3-58.4,13.3-85.4,0c-43.9-21.5-64.9-72.3-49.1-118.5C48,61.9,78.8,36.7,115.3,31.8C121,31,132.5,30.8,138.5,31.5z" />
            <path
                d="M121.8,54.6c-8,0.8-18.6,3.8-24.8,6.9c-2,1-2.7,1.6-2.5,2.2c1,3.5,6.9,22.1,7,22.2c0.1,0.1,1.7-0.6,3.5-1.5c6-3,10.9-4.2,17.2-4.2c4.6,0,6,0.1,8.1,1c5.6,2.2,8.1,5.8,8,11.6c-0.1,5.8-2.4,10.1-11.2,21.2c-2.7,3.3-6,7.9-7.3,10.1c-5.2,8.6-7.4,18.8-6.3,28.2l0.3,2.4l14.1-0.1l14.1-0.1l0.3-6c0.5-10.5,3.1-16.1,12.6-26.8c12.6-14.2,16.4-22.2,16.4-34.1c0-9.3-2.7-16-9.1-22.3c-3.2-3.2-4.4-4.1-8.5-6.1C144.7,54.9,134.2,53.3,121.8,54.6z" />
            <path
                d="M120.9,165.9c-8.5,2.7-13.1,10-12.7,20c0.1,3.6,0.4,4.8,1.6,7.4c2.7,5.9,7.9,9.6,14.4,10.5c14.4,2,24.9-10,21.6-24.4c-1.7-7.2-6.7-12.3-13.7-13.9C128.9,164.7,123.9,164.9,120.9,165.9z" />
        </g>
    </symbol>
    <symbol viewBox="0 0 256 256" id="save">
        <path
            d="M208.9,36.2H62.4C48,36.2,36.2,48,36.2,62.4v157.3c0,14.4,11.8,26.2,26.2,26.2h157.3c14.4,0,26.2-11.8,26.2-26.2V77.2L208.9,36.2L208.9,36.2z M193.6,114.9c0,7.2-5.9,13.1-13.1,13.1h-78.7c-7.2,0-13.1-5.9-13.1-13.1V49.3h104.9L193.6,114.9L193.6,114.9z M180.5,62.4h-26.2v52.5h26.2V62.4L180.5,62.4z" />
    </symbol>

    <symbol viewBox="0 0 256 256" id="duplicate">
        <path
            d="M231.3,157.5c0,8.1-6.6,14.8-14.8,14.8h-118c-8.1,0-14.8-6.6-14.8-14.8v-118c0-8.1,6.6-14.8,14.8-14.8h118c8.1,0,14.8,6.6,14.8,14.8V157.5L231.3,157.5z M216.5,10h-118C82.2,10,69,23.2,69,39.5v118c0,16.3,13.2,29.5,29.5,29.5h118c16.3,0,29.5-13.2,29.5-29.5v-118C246,23.2,232.8,10,216.5,10L216.5,10z M172.3,216.5c0,8.1-6.6,14.8-14.8,14.8h-118c-8.1,0-14.8-6.6-14.8-14.8v-118c0-8.1,6.6-14.8,14.8-14.8h14.8V69H39.5C23.2,69,10,82.2,10,98.5v118c0,16.3,13.2,29.5,29.5,29.5h118c16.3,0,29.5-13.2,29.5-29.5v-14.8h-14.8L172.3,216.5L172.3,216.5z" />
    </symbol>

    <symbol viewBox="0 0 256 256" id="menu">
        <g>
            <path
                d="M22.2,44.4c-4.8,1.2-8.8,4.8-10.9,9.5C10.2,56,10,57.1,10,60.6c0,3.8,0.1,4.5,1.5,7.2c1.8,3.6,4.7,6.5,8.4,8.2l2.6,1.2H128h105.5l2.6-1.2c3.6-1.7,6.6-4.5,8.4-8.2c1.3-2.7,1.5-3.4,1.5-7.2s-0.1-4.5-1.5-7.2c-1.8-3.6-4.7-6.5-8.4-8.2l-2.6-1.2l-104.6-0.1C47,43.9,23.9,44,22.2,44.4z" />
            <path
                d="M22.2,111.8c-4.8,1.2-8.8,4.8-10.9,9.5c-1.1,2.2-1.2,3.2-1.2,6.7c0,3.8,0.1,4.5,1.5,7.2c1.8,3.6,4.7,6.5,8.4,8.2l2.6,1.2H128h105.5l2.6-1.2c3.6-1.7,6.6-4.5,8.4-8.2c1.3-2.7,1.5-3.4,1.5-7.2s-0.1-4.5-1.5-7.2c-1.8-3.6-4.7-6.5-8.4-8.2l-2.6-1.2l-104.6-0.1C47,111.3,23.9,111.4,22.2,111.8z" />
            <path
                d="M22.2,179.3c-4.7,1.2-8.8,4.8-11,9.5c-1,2.2-1.2,3.2-1.2,6.7c0,3.8,0.1,4.5,1.5,7.2c1.8,3.6,4.7,6.5,8.4,8.2l2.6,1.2H128h105.5l2.6-1.2c3.6-1.7,6.6-4.5,8.4-8.2c1.3-2.7,1.5-3.4,1.5-7.2c0-3.8-0.1-4.5-1.5-7.2c-1.8-3.6-4.7-6.5-8.4-8.2l-2.6-1.2l-104.6-0.1C47,178.7,23.9,178.8,22.2,179.3z" />
        </g>
    </symbol>

    <symbol viewBox="0 0 256 256" id="search">
        <path
            d="M96.4,10.7c-17.7,1.8-36,9.4-50.2,20.6C42,34.6,34.4,42.2,31.1,46.4C15.5,66.2,8,91.4,10.4,115.8c4.5,44.9,39,80.6,83.6,86.4c3,0.4,8.6,0.7,12.5,0.7c21.4,0,40.3-6.4,59.1-20.1c0.5-0.4,7.9,6.8,31.6,30.5c21.6,21.6,31.5,31.2,32.7,31.7c1,0.4,2.9,0.7,4.2,0.7c7.5,0,13.3-7.4,11.4-14.6c-0.6-2.1-2.7-4.3-32-33.6l-31.3-31.5l1.8-2.4c6.8-9.1,12.6-21.4,15.6-33.1c4.6-18.2,4-36.8-1.9-54.5C183.6,33.4,141.3,6,96.4,10.7z M113,32.1c4.8,0.2,12.2,1.7,17.3,3.5c4.9,1.7,13.3,5.9,18.2,9.1c6.5,4.3,15.5,13.4,20,20.1c13.1,19.8,16.3,43.2,9,65.6c-1.8,5.4-6.7,15-10.2,20.1c-4,5.6-11.7,13.2-17.2,17.2c-25.9,18.3-59.2,18.8-85.6,1.2c-6.5-4.4-15.8-13.6-19.9-19.8c-6.6-10-10.9-20.9-12.5-32.3c-0.8-5.7-0.6-16.6,0.4-22.6c5.9-34.1,34.5-60,68.8-62.2c2.7-0.2,5.3-0.3,6-0.2C107.9,31.8,110.5,31.9,113,32.1z" />
    </symbol>

    <symbol viewBox="0 0 256 256" id="filter">
        <path
            d="M244,10c-3.6-5.4-10.9-9.1-18.2-9.1H31.6c-9.1,0-14.5,3.6-18.2,9.1c-5.4,7.3-3.6,14.5,0,21.8l1.8,1.8l67.2,56.3v81.7c0,3.6,1.8,5.4,3.6,7.3l27.2,20c3.6,3.6,9.1,1.8,12.7-1.8c3.6-3.6,1.8-9.1-1.8-12.7l-23.6-18.2V86.2c0-1.8-1.8-5.4-3.6-7.3L26.1,19.1h203.3L158.7,79c-1.8,1.8-3.6,3.6-3.6,7.3V246c0,5.4,3.6,9.1,9.1,9.1c5.4,0,9.1-3.6,9.1-9.1V89.9l67.2-56.3l1.8-1.8C245.8,24.5,247.7,17.2,244,10z" />
    </symbol>

    <symbol viewBox="0 0 256 256" id="phone">
        <path
            d="M50.2,18.5c-2.7,1.5-11.3,9.3-16.6,15.1C19.9,48.3,12,61.8,10.4,73.3c-0.8,5.6-0.3,9.4,2.1,16c11.7,31.9,28.2,58.1,51.4,81.8c25.8,26.3,57.5,46.6,93.3,59.7c14.4,5.3,24,7.6,31.9,7.6l5.6,0l4.1-2.1c4.9-2.5,12.6-7.6,17.6-11.6c8.6-7,20.2-19.4,26.6-28.4c3-4.2,3.6-6.5,2.6-9.4c-0.8-2.3-2-3.3-12.7-10c-5.3-3.4-16.3-10.5-24.3-15.8c-8-5.3-15.4-9.9-16.2-10.3c-2.2-0.9-4.7-0.8-7.1,0.2c-1.7,0.7-2.5,1.7-5.4,6.1c-8.9,13.7-15.8,22.2-19.1,23.5c-2.6,1-4.7,0.4-12.1-3.5c-26.7-14.1-48.9-33.8-70.3-62.6c-5.9-7.9-6.7-9.5-6.7-12.2c0-1.8,0.3-2.5,2.9-5.9C78.2,92,88,81.8,93.4,77.3c4.9-4.1,5-4.2,5.6-7.1c0.7-3,0.1-4.3-4.5-10.5C81,41.8,61.7,20.2,57.7,18.3C55.2,17.2,52.5,17.2,50.2,18.5z" />
    </symbol>

    <symbol viewBox="0 0 256 256" id="mail">
        <g>
            <path
                d="M21.2,39.8c-5.8,1.4-10.7,6.9-11,12.3l-0.1,2.2l16.8,13C79.2,107.6,127.8,145,128,145c0.1,0,26.7-20.4,59-45.4l58.8-45.3l0-2c-0.1-4.3-3.7-9.2-8.3-11.5l-2.3-1.2l-106.3-0.1C70.4,39.6,22,39.6,21.2,39.8z" />
            <path
                d="M10,145.8l0.1,59.9l1.2,2.3c1.4,3,4.2,5.7,7.1,7.1l2.3,1.2l106.3,0.1c96.5,0.1,106.5,0,108.6-0.6c4.7-1.5,8.2-4.9,9.7-9.7c0.7-2,0.7-8.2,0.6-60.5l-0.1-58.2l-54.6,41c-30,22.6-55.5,41.5-56.7,42.1c-1.8,0.9-2.9,1.1-6.5,1.1c-3.8,0-4.7-0.1-6.8-1.2c-1.3-0.6-26.7-19.8-56.3-42.5c-29.7-22.7-54.2-41.4-54.5-41.6C10.1,86,9.9,101.1,10,145.8z" />
        </g>
    </symbol>

    <symbol viewBox="0 0 256 256" id="share">
        <path
            d="M146.9,26.4c-3,0.9-4.9,2.4-6.3,4.7l-1.5,2.4v18.5c0,10.2-0.2,18.6-0.5,18.8c-0.2,0.2-4.5,1.3-9.5,2.6c-16.8,4.2-29.6,8.9-42,15.2c-37.1,18.8-59.4,48.3-70.7,93.1c-3.1,12.5-6.3,32-6.3,38c0.1,9.5,12,13.9,18.4,6.8c0.7-0.8,2.4-3,3.6-4.9c14.5-21.9,41.9-40.4,73.5-49.6c11.1-3.2,31.9-6.8,33-5.6c0.2,0.2,0.5,8.3,0.5,18l0.2,17.6l1.6,2c3.4,4.2,8.9,5.6,13.2,3.4c2.8-1.5,89.2-82.7,90.7-85.3c1.5-2.7,1.6-6.5,0.2-9.4c-0.7-1.6-12.9-13.3-44.6-43.1c-24-22.5-44.5-41.4-45.5-42.1C152.6,26.3,148.9,25.7,146.9,26.4z M192.2,91.5c26.1,24.4,27.6,26,26.7,26.7c-0.5,0.4-13.8,12.8-29.5,27.5c-15.7,14.7-28.7,26.8-29,26.9c-0.3,0.1-0.5-4.4-0.5-10.1c0-5.9-0.2-10.9-0.6-11.7c-0.7-2-3.5-4.8-5.6-5.7c-2-0.9-12.7-1-20.7-0.2c-32.5,3.2-64.4,15.4-89.2,34c-3.2,2.4-5.9,4.2-5.9,4.2c-0.3-0.3,3.5-12.1,5.5-17.2c10.5-26.4,26.6-44.5,50.9-57.3c14-7.3,34.3-14.1,54.7-18c5.5-1,8.3-2.8,9.9-6.1c0.8-1.9,1-3.5,1-12.6V61.5l2.3,2C163.5,64.6,177,77.2,192.2,91.5z" />
    </symbol>
    <symbol viewBox="0 0 256 256" id="heart-double">
        <g>
            <path
                d="M122.3,62.1C98.7,26.8,56.1,47.4,62,85.6C28.1,65-5.7,97.4,17.8,132.7c13.2,19.1,36.8,14.7,53,13.2c17.7,0,32.4,4.4,36.8,7.3c-1.5-4.4,0-22.1,7.3-36.8C122.3,100.3,135.5,81.2,122.3,62.1L122.3,62.1z" />
            <path
                d="M187,132.7c-5.9-39.7-53-44.1-64.7-2.9c-5.9,22.1,13.2,36.8,25,50c11.8,13.2,17.7,26.5,17.7,32.4c2.9-4.4,17.7-13.2,32.4-19.1c16.2-5.9,41.2-7.4,47.1-29.4C254.7,122.4,212,103.2,187,132.7L187,132.7z" />
        </g>
    </symbol>
</svg>